# xmcd
#
# Track frame offsets: 
#        150
#        12362
#        25549
#        39135
#        49003
#        65836
#        78351
#        95331
#        108100
#        119936
#        130092
#        147689
#        158817
#        167573
#        177245
#        192974
#        212360
#        222203
#        236410
#        249196
#        260880
#        275331
#        294162
#        306192
#
# Disc length: 4255 seconds
#
# Revision: 0
# Processed by: cddbd v1.5.2PL0 Copyright (c) Steve Scherf et al.
# Submitted via: ExactAudioCopyFreeDBPlugin 1.0
#
DISCID=4e109d18
DTITLE=Various Artist - Western Heart Promotions TKO Group Volume 59
DYEAR=2006
DGENRE=Country
TTITLE0=Hal Willis - Pedita Mia
TTITLE1=Jaime Beaver - Careless Hands
TTITLE2=Stephan Pride - The Truth is I Lied
TTITLE3=Joy Adams - I Know You Don't Love Me No More
TTITLE4=The Matekis - Walkin in Her Light
TTITLE5=Meme Wills - Home of Emptiness
TTITLE6=Stevie Cee - You're the Best Thing
TTITLE7=Joyce Ramgatie/Roy Cost - I Just Can't Stand to Lose You
TTITLE8=Jose Daniel - Ridin' My thumb to Mexico
TTITLE9=Erin Hay - If Teardrops Were Pennies
TTITLE10=Andrew Dean - Goodbye Memory
TTITLE11=Cheryl K. Warner - I Took A Wrong Turn
TTITLE12=Jim Marlboro - Blue Suede Shoes
TTITLE13=Kevin Stocks - Home
TTITLE14=Jamie Cutler/John Butler - Where Did We Go Wrong
TTITLE15=Tommy The UK Cowboy - Memories in That Cold Storage Room
TTITLE16=Angie Hart - Jesus Love You And Me
TTITLE17=John and Jeff Waters - Don't Dry My Tears
TTITLE18=Ray Steale - Sweet Marie
TTITLE19=Ron Wayne Atwood - Young Love
TTITLE20=Pete Rose - Three of Us
TTITLE21=Todd Tally - My Baby Likes To Drive Real Fast
TTITLE22=Collin Emory - You Run Me Under
TTITLE23=John "The Ferret" Moran - It's Hard To Make A Comeback
EXTD=
EXTT0=
EXTT1=
EXTT2=
EXTT3=
EXTT4=
EXTT5=
EXTT6=
EXTT7=
EXTT8=
EXTT9=
EXTT10=
EXTT11=
EXTT12=
EXTT13=
EXTT14=
EXTT15=
EXTT16=
EXTT17=
EXTT18=
EXTT19=
EXTT20=
EXTT21=
EXTT22=
EXTT23=
PLAYORDER=
